<svg width="290" height="50" viewBox="0 0 290 50" fill="none" xmlns="http://www.w3.org/2000/svg">
<path d="M28 8C28 6.89543 27.1046 6 26 6H12C10.8954 6 10 6.89543 10 8V10C10 11.1046 9.10457 12 8 12H7C5.89543 12 5 12.8954 5 14V20C5 21.1046 5.89543 22 7 22H8C9.10457 22 10 22.8954 10 24V26C10 27.1046 10.8954 28 12 28H25C26.1046 28 27 28.8954 27 30V36C27 37.1046 26.1046 38 25 38H13C11.8954 38 11 37.1046 11 36V34C11 32.8954 10.1046 32 9 32H7C5.89543 32 5 32.8954 5 34V36C5 37.1046 5.89543 38 7 38H8C9.10457 38 10 38.8954 10 40V42C10 43.1046 10.8954 44 12 44H26C27.1046 44 28 43.1046 28 42V40C28 38.8954 28.8954 38 30 38H31C32.1046 38 33 37.1046 33 36V30C33 28.8954 32.1046 28 31 28H30C28.8954 28 28 27.1046 28 26V24C28 22.8954 27.1046 22 26 22H13C11.8954 22 11 21.1046 11 20V14C11 12.8954 11.8954 12 13 12H25C26.1046 12 27 12.8954 27 14V16C27 17.1046 27.8954 18 29 18H31C32.1046 18 33 17.1046 33 16V14C33 12.8954 32.1046 12 31 12H30C28.8954 12 28 11.1046 28 10V8Z" fill="black"/>
<path fill-rule="evenodd" clip-rule="evenodd" d="M64 8C64 6.89543 63.1046 6 62 6H48C46.8954 6 46 6.89543 46 8V10C46 11.1046 45.1046 12 44 12H43C41.8954 12 41 12.8954 41 14V42C41 43.1046 41.8954 44 43 44H45C46.1046 44 47 43.1046 47 42V30C47 28.8954 47.8954 28 49 28H61C62.1046 28 63 28.8954 63 30V42C63 43.1046 63.8954 44 65 44H67C68.1046 44 69 43.1046 69 42V14C69 12.8954 68.1046 12 67 12H66C64.8954 12 64 11.1046 64 10V8ZM63 14C63 12.8954 62.1046 12 61 12H49C47.8954 12 47 12.8954 47 14V20C47 21.1046 47.8954 22 49 22H61C62.1046 22 63 21.1046 63 20V14Z" fill="black"/>
<path d="M83 8C83 6.89543 82.1046 6 81 6H79C77.8954 6 77 6.89543 77 8V42C77 43.1046 77.8954 44 79 44H81C82.1046 44 83 43.1046 83 42V20C83 18.8954 83.8954 18 85 18H86C87.1046 18 88 18.8954 88 20V31C88 32.1046 88.8954 33 90 33H92C93.1046 33 94 33.8954 94 35V36C94 37.1046 94.8954 38 96 38H98C99.1046 38 100 38.8954 100 40V42C100 43.1046 100.895 44 102 44H104C105.105 44 106 43.1046 106 42V8C106 6.89543 105.105 6 104 6H102C100.895 6 100 6.89543 100 8V30C100 31.1046 99.1046 32 98 32H96C94.8954 32 94 31.1046 94 30V20C94 18.8954 93.1046 18 92 18H91C89.8954 18 89 17.1046 89 16V14C89 12.8954 88.1046 12 87 12H85C83.8954 12 83 11.1046 83 10V8Z" fill="black"/>
<path fill-rule="evenodd" clip-rule="evenodd" d="M116 6C114.895 6 114 6.89543 114 8V42C114 43.1046 114.895 44 116 44H131C132.105 44 133 43.1046 133 42V41C133 39.8954 133.895 39 135 39H137C138.105 39 139 38.1046 139 37V13C139 11.8954 138.105 11 137 11H135C133.895 11 133 10.1046 133 9V8C133 6.89543 132.105 6 131 6H116ZM122 12C120.895 12 120 12.8954 120 14V36C120 37.1046 120.895 38 122 38H131C132.105 38 133 37.1046 133 36V14C133 12.8954 132.105 12 131 12H122Z" fill="black"/>
<path d="M152 8C152 6.89543 152.895 6 154 6H168C169.105 6 170 6.89543 170 8V10C170 11.1046 170.895 12 172 12H173C174.105 12 175 12.8954 175 14V16C175 17.1046 174.105 18 173 18H171C169.895 18 169 17.1046 169 16V14C169 12.8954 168.105 12 167 12H155C153.895 12 153 12.8954 153 14V20C153 21.1046 153.895 22 155 22H168C169.105 22 170 22.8954 170 24V26C170 27.1046 170.895 28 172 28H173C174.105 28 175 28.8954 175 30V36C175 37.1046 174.105 38 173 38H172C170.895 38 170 38.8954 170 40V42C170 43.1046 169.105 44 168 44H154C152.895 44 152 43.1046 152 42V40C152 38.8954 151.105 38 150 38H149C147.895 38 147 37.1046 147 36V34C147 32.8954 147.895 32 149 32H151C152.105 32 153 32.8954 153 34V36C153 37.1046 153.895 38 155 38H167C168.105 38 169 37.1046 169 36V30C169 28.8954 168.105 28 167 28H154C152.895 28 152 27.1046 152 26V24C152 22.8954 151.105 22 150 22H149C147.895 22 147 21.1046 147 20V14C147 12.8954 147.895 12 149 12H150C151.105 12 152 11.1046 152 10V8Z" fill="black"/>
<path fill-rule="evenodd" clip-rule="evenodd" d="M185 6C183.895 6 183 6.89543 183 8V42C183 43.1046 183.895 44 185 44H187C188.105 44 189 43.1046 189 42V30C189 28.8954 189.895 28 191 28H200C201.105 28 202 27.1046 202 26V25C202 23.8954 202.895 23 204 23H205C206.105 23 207 22.1046 207 21V14C207 12.8954 206.105 12 205 12H204C202.895 12 202 11.1046 202 10V8C202 6.89543 201.105 6 200 6H185ZM191 12C189.895 12 189 12.8954 189 14V20C189 21.1046 189.895 22 191 22H199C200.105 22 201 21.1046 201 20V14C201 12.8954 200.105 12 199 12H191Z" fill="black"/>
<path d="M219 8C219 6.89543 218.105 6 217 6H215C213.895 6 213 6.89543 213 8V42C213 43.1046 213.895 44 215 44H217C218.105 44 219 43.1046 219 42V8Z" fill="black"/>
<path d="M231 8C231 6.89543 231.895 6 233 6H251C252.105 6 253 6.89543 253 8V10C253 11.1046 252.105 12 251 12H234C232.895 12 232 12.8954 232 14V20C232 21.1046 232.895 22 234 22H251C252.105 22 253 22.8954 253 24V26C253 27.1046 252.105 28 251 28H234C232.895 28 232 28.8954 232 30V36C232 37.1046 232.895 38 234 38H251C252.105 38 253 38.8954 253 40V42C253 43.1046 252.105 44 251 44H233C231.895 44 231 43.1046 231 42V40C231 38.8954 230.105 38 229 38H228C226.895 38 226 37.1046 226 36V14C226 12.8954 226.895 12 228 12H229C230.105 12 231 11.1046 231 10V8Z" fill="black"/>
<path d="M261 8C261 6.89543 261.895 6 263 6H265C266.105 6 267 6.89543 267 8V36C267 37.1046 267.895 38 269 38H283C284.105 38 285 38.8954 285 40V42C285 43.1046 284.105 44 283 44H263C261.895 44 261 43.1046 261 42V8Z" fill="black"/>
</svg>
